<?xml version="1.0" encoding="UTF-8"?>
<svg id="Layer_3" data-name="Layer 3" xmlns="http://www.w3.org/2000/svg" viewBox="0 0 265.11 187.41">
  <defs>
    <style>
      .cls-1 {
        fill: #231f20;
      }
    </style>
  </defs>
  <path class="cls-1" d="M81.58,61.48l39.78-.17v.65c-1.34.16-3.3.46-5.6,1.12-2.77.79-6.57,2.23-14.59,7.85-3.15,2.2-7.18,5.22-11.68,9.1,1.32-1.08,3.79-3.44,4.79-7.16.38-1.4.98-3.65-.09-5.85-.2-.4-.76-1.45-2.36-2.6-3.66-2.64-8.25-2.57-10.25-2.42v-.51Z"/>
  <path class="cls-1" d="M73.16,95v-1.04l8.87-7.22h.88l22.01,33.72c1.38,1.79,4.28,5.05,9.09,7.1,2.77,1.18,5.29,1.6,7.12,1.74v.4h-41.72v-.39c1.7-.06,3.13-.16,4.18-.25,1.98-.17,2.55-.29,3.09-.45,1.15-.34,2.35-.68,3.23-1.77.76-.95.91-1.98.97-2.49.31-2.5-1.17-4.44-1.58-4.94-5.38-8.14-10.75-16.28-16.13-24.42Z"/>
  <path class="cls-1" d="M129.31,129.71v-.58c1.54-.06,6.62-.43,10.67-4.31,1-.96,3.68-3.53,4.21-7.58.15-1.17.09-2.15,0-2.83h1.73c-.08.66-.13,1.6,0,2.71.55,4.66,3.82,7.59,4.65,8.34,4.09,3.68,8.99,3.83,10.34,3.83v.42h-31.6Z"/>
  <path class="cls-1" d="M128.49,60.69v2.02c2.43-.28,8.23-.58,13.88,2.84,1.94,1.18,3.42,2.52,4.51,3.73,9.87,20.39,19.73,40.78,29.6,61.16h1.65l6.92-14.31-26.77-55.44h-29.78Z"/>
  <path class="cls-1" d="M207.8,64.79l1.85-4.06h27.69v1.87c-1.2-.09-2.95-.12-5.01.26-1.77.33-4.36.81-6.44,2.54-3.54,2.94-3.65,7.82-3.65,8.9-.04,13.85-.07,27.69-.11,41.54,0,.78.09,7.65,4.71,10.67,2.61,1.71,6.41,2.01,7.39,2.08,1.28.1,2.36.06,3.11,0v1.92l-45.14-.07v-1.85h4.08c2.18-.14,6.23-.75,8.91-3.78,2.7-3.05,2.7-7.06,2.7-8.9,0-8.84.1-27.07-.09-51.13Z"/>
  <path class="cls-1" d="M33.56,61.48h42.66v.42c-.64-.04-8.86-.47-12.6,5.26-.93,1.42-1.39,2.91-1.59,4.26-.05,15.28-.1,30.56-.16,45.84-.04.97-.06,4.66,2.62,7.89,0,0,3.18,3.8,8.28,4.14.82.05,1.86.06,1.86.06.68,0,1.23-.01,1.58-.03v.38l-42.66.13v-.64c.64.03,1.57.05,2.69-.02,0,0,.88-.05,1.56-.13,1.63-.2,4.74-1.34,6.71-3.26,2.55-2.49,3.31-5.88,3.31-8.22,0-15.27.02-30.53.03-45.8-.24-2.03-.93-3.46-1.5-4.36-3.71-5.88-12.29-5.37-12.8-5.33v-.59Z"/>
  <polygon class="cls-1" points="123.01 87.67 125.58 92.87 131.31 93.7 127.16 97.75 128.14 103.46 123.01 100.76 117.88 103.46 118.86 97.75 114.71 93.7 120.45 92.87 123.01 87.67"/>
</svg>